<svg id="Layer_1" data-name="Layer 1" xmlns="http://www.w3.org/2000/svg" width="480" height="56" viewBox="0 0 480 56"><title>yarntown-caption</title><path d="M23.444,21.2c-1.257,0-1.613-1.323-2.206-2.853L14.468.874a.5.5,0,0,0-.514-.36H10.343a.494.494,0,0,0-.512.363L3.364,18.347c-.579,1.565-.92,2.853-2.237,2.853a.4.4,0,0,0-.449.449v.9A.4.4,0,0,0,1.127,23H8.586a.4.4,0,0,0,.45-.451v-.9a.4.4,0,0,0-.45-.449A2.124,2.124,0,0,1,6.38,18.347l.893-2.534h8.215l.934,2.534a2.265,2.265,0,0,1,.145.778A2.205,2.205,0,0,1,14.246,21.2a.4.4,0,0,0-.451.449v.9a.4.4,0,0,0,.451.451h9.2a.4.4,0,0,0,.45-.451v-.9A.4.4,0,0,0,23.444,21.2Zm-15.25-8,3.1-8.786L14.527,13.2Z"/><path d="M65.684,11.848l-9.434-.007a.4.4,0,0,0-.45.451v.9a.4.4,0,0,0,.45.451h.209c1.547.066,3.194.057,3.194,3.448V18.65c0,1.4-1.88,1.832-3.4,1.832-4.462,0-6.505-5.159-6.505-9.8,0-3.361,1.424-8.16,5.692-8.16,3.431,0,4.417,2.684,4.417,4.809l-.021.543-.052.458c-.031.189.1.309.345.309a1.178,1.178,0,0,0,.378-.073l3.842-1.341a.6.6,0,0,0,.52-.588l-.022-.189C63.866,2.022,59.664.17,55.675.17,47.056.17,44.627,7,44.627,12c0,6.456,4.3,11.31,10.85,11.31a9.775,9.775,0,0,0,8.156-3.668,8.125,8.125,0,0,0,1.02-1.758V14.617c0-.665.212-.966.791-.966h.24a.4.4,0,0,0,.45-.449v-.9A.4.4,0,0,0,65.684,11.848Z"/><path d="M94.184,21.2c-1.257,0-1.613-1.323-2.2-2.853L85.208.874a.5.5,0,0,0-.514-.36H81.083a.494.494,0,0,0-.512.363L74.1,18.347c-.579,1.565-.919,2.853-2.236,2.853a.4.4,0,0,0-.45.449v.9a.4.4,0,0,0,.45.451h7.458a.4.4,0,0,0,.45-.451v-.9a.4.4,0,0,0-.45-.449,2.122,2.122,0,0,1-2.2-2.853l.893-2.534h8.215l.933,2.534a2.244,2.244,0,0,1,.146.778A2.206,2.206,0,0,1,84.986,21.2a.4.4,0,0,0-.45.449v.9a.4.4,0,0,0,.45.451h9.2a.4.4,0,0,0,.45-.451v-.9A.4.4,0,0,0,94.184,21.2Zm-15.25-8,3.1-8.786L85.267,13.2Z"/><path d="M102.168,23h7.4a.4.4,0,0,0,.45-.451v-.9a.4.4,0,0,0-.45-.449c-1.466,0-2.176-1.222-2.176-2.853V6.972l7.061,14.338a.534.534,0,0,0,.528.331h2.755a.534.534,0,0,0,.528-.331l7.061-14.338V18.347c0,1.631-.71,2.853-2.176,2.853a.4.4,0,0,0-.45.449v.9a.4.4,0,0,0,.45.451h7.4a.4.4,0,0,0,.45-.451v-.9a.4.4,0,0,0-.45-.449c-1.466,0-2.2-1.222-2.2-2.853V2.755A3.524,3.524,0,0,1,130.2,2.3a.4.4,0,0,0,.45-.449V.95A.4.4,0,0,0,130.2.5h-5.644a.668.668,0,0,0-.55.26l-7.65,15.479L108.707.76a.668.668,0,0,0-.55-.26h-5.644a.4.4,0,0,0-.45.45v.9a.4.4,0,0,0,.45.449,3.675,3.675,0,0,1,1.886.456V18.347c-.025,1.631-.765,2.853-2.231,2.853a.4.4,0,0,0-.45.449v.9A.4.4,0,0,0,102.168,23Z"/><path d="M138.948,23.009h16.423a.774.774,0,0,1,.574.15l.167.15a.378.378,0,0,0,.634-.15l2.811-5.939a.53.53,0,0,0,.082-.265.428.428,0,0,0-.252-.368l-.956-.564a.532.532,0,0,0-.264-.081.431.431,0,0,0-.37.26l-.1.166c-2.62,4.3-5.017,4.509-7.746,4.509h-1.938c-1.562-.052-2.069-1.256-2.069-2.851V12.073h2.626c1.577,0,2.772.5,2.848,2.019v.185a.4.4,0,0,0,.45.451h.9a.4.4,0,0,0,.45-.451V7.453a.4.4,0,0,0-.45-.45h-.9a.4.4,0,0,0-.45.45v.208c-.076,1.523-1.271,2.019-2.848,2.019h-2.805V2.642h5.038a4.789,4.789,0,0,1,4.779,2.768l.1.166a.427.427,0,0,0,.368.251.538.538,0,0,0,.265-.081l1.256-.674a.429.429,0,0,0,.252-.368.53.53,0,0,0-.082-.266L155.351.347A.456.456,0,0,0,154.973.1a.409.409,0,0,0-.255.1l-.168.15a.733.733,0,0,1-.574.163H138.948a.409.409,0,0,0-.45.457v.9a.4.4,0,0,0,.45.45h.03c1.647,0,2.176,1.222,2.176,2.852V18.356c0,1.631-.529,2.853-2.176,2.853h-.03a.4.4,0,0,0-.45.45v.9A.4.4,0,0,0,138.948,23.009Z"/><path d="M181.1,23H192.12c4.866,0,8-3.209,8-6.639,0-2.828-1.349-5.193-5-6.237,2.172-1.072,3.033-2.685,3.033-4.193,0-3.34-3.506-5.432-7.413-5.432H181.1a.411.411,0,0,0-.45.459v.9a.4.4,0,0,0,.45.451h.03c1.646,0,2.176,1.221,2.176,2.852V18.347c0,1.631-.53,2.853-2.176,2.853h-.03a.4.4,0,0,0-.45.449v.9A.4.4,0,0,0,181.1,23Zm14.527-6.639a4.563,4.563,0,0,1-4.816,4.832h-.743c-1.483-.1-1.968-1.286-1.968-2.846V11.679h1.742C193.842,11.679,195.625,13.044,195.625,16.361ZM187.918,2.308h1.99a3.427,3.427,0,0,1,3.751,3.623c0,2-.988,3.618-3.857,3.618h-1.884Z"/><path d="M206.028,2.224c1.257,0,2.078.866,3.405,2.852l5.417,8.109a.913.913,0,0,1,.169.558v4.6c0,1.579-.5,2.776-2.024,2.849h-.18a.4.4,0,0,0-.45.45v.9a.4.4,0,0,0,.45.451h9.225a.4.4,0,0,0,.449-.451v-.9a.4.4,0,0,0-.449-.45h-.21c-1.52-.073-2.017-1.27-2.017-2.849V13.573a1,1,0,0,1,.151-.558l4.643-7.939c1.159-1.98,2.42-2.852,3.737-2.852a.4.4,0,0,0,.45-.451v-.9a.4.4,0,0,0-.45-.45h-7.458a.4.4,0,0,0-.45.45v.9a.4.4,0,0,0,.45.451c.884,0,1.374.3,1.374.984a4.161,4.161,0,0,1-.669,1.868L218.344,10.8,214.85,5.076a2.893,2.893,0,0,1-.509-1.454c0-1.012,1.025-1.4,2.085-1.4a.4.4,0,0,0,.45-.451v-.9a.4.4,0,0,0-.45-.45h-10.4a.4.4,0,0,0-.45.45v.9A.4.4,0,0,0,206.028,2.224Z"/><path d="M249.947,23h7.4a.4.4,0,0,0,.45-.451v-.9a.4.4,0,0,0-.45-.449c-1.467,0-2.176-1.222-2.176-2.853V6.972l7.06,14.338a.536.536,0,0,0,.529.331h2.755a.534.534,0,0,0,.528-.331L273.1,6.972V18.347c0,1.631-.71,2.853-2.177,2.853a.4.4,0,0,0-.45.449v.9a.4.4,0,0,0,.45.451h7.4a.4.4,0,0,0,.45-.451v-.9a.4.4,0,0,0-.45-.449c-1.467,0-2.206-1.222-2.206-2.853V2.755a3.529,3.529,0,0,1,1.86-.456.4.4,0,0,0,.451-.449V.95a.4.4,0,0,0-.451-.45h-5.643a.668.668,0,0,0-.55.26l-7.65,15.479L256.486.76a.666.666,0,0,0-.549-.26h-5.644a.4.4,0,0,0-.45.45v.9a.4.4,0,0,0,.45.449,3.684,3.684,0,0,1,1.887.456V18.347c-.027,1.631-.766,2.853-2.233,2.853a.4.4,0,0,0-.449.449v.9A.4.4,0,0,0,249.947,23Z"/><path d="M286.308,23h7.458a.4.4,0,0,0,.45-.451v-.9a.4.4,0,0,0-.45-.449,2.124,2.124,0,0,1-2.205-2.853l.893-2.534h8.214l.934,2.534a2.265,2.265,0,0,1,.145.778,2.2,2.2,0,0,1-2.321,2.075.4.4,0,0,0-.45.449v.9a.4.4,0,0,0,.45.451h9.2a.4.4,0,0,0,.45-.451v-.9a.4.4,0,0,0-.45-.449c-1.257,0-1.613-1.323-2.206-2.853L299.648.874a.5.5,0,0,0-.514-.36h-3.611a.494.494,0,0,0-.512.363l-6.467,17.47c-.579,1.565-.92,2.853-2.236,2.853a.4.4,0,0,0-.451.449v.9A.405.405,0,0,0,286.308,23ZM296.472,4.417l3.235,8.786h-6.333Z"/><path d="M315.812,22.955V23h7.309a.448.448,0,0,0,.5-.5V21.493a.452.452,0,0,0-.5-.5h-.662c-.568,0-.816-.133-.816-.409a4.069,4.069,0,0,1,1-1.712L327,13.243l4.977,6.061a1.661,1.661,0,0,1,.475.971c0,.584-.784.717-1.226.717h-.068a.45.45,0,0,0-.494.5V22.5a.447.447,0,0,0,.5.5h8.894a.447.447,0,0,0,.5-.5V21.5a.452.452,0,0,0-.5-.5h-.082c-.844,0-1.782-.688-2.952-2.119l-6.417-7.849L335.689,4.6c1.149-1.475,1.606-2.1,2.975-2.1h.48a.452.452,0,0,0,.5-.5V.988a.452.452,0,0,0-.5-.5h-7.06a.453.453,0,0,0-.5.5V2a.453.453,0,0,0,.5.5h.326c.57,0,.82.136.82.416a3.974,3.974,0,0,1-1.006,1.705L328.862,8.89l-3.936-4.815a2.05,2.05,0,0,1-.583-1.063c0-.348.4-.5,1.22-.5h.068a.451.451,0,0,0,.494-.5V1a.452.452,0,0,0-.5-.5H316.9a.452.452,0,0,0-.5.5V2.012a.452.452,0,0,0,.5.5h.082c.843,0,1.793.708,2.951,2.119l5.315,6.474-6.064,7.78c-1.152,1.472-1.606,2.1-2.975,2.1h-.4v.05a.453.453,0,0,0-.245.454V22.5A.444.444,0,0,0,315.812,22.955Z"/><path d="M390.075,21.2c-1.467,0-2.206-1.222-2.206-2.853V2.755a3.529,3.529,0,0,1,1.86-.456.4.4,0,0,0,.451-.449V.95a.4.4,0,0,0-.451-.45h-5.643a.668.668,0,0,0-.55.26l-7.65,15.479L368.236.76a.666.666,0,0,0-.549-.26h-5.644a.4.4,0,0,0-.45.45v.9a.4.4,0,0,0,.45.449,3.684,3.684,0,0,1,1.887.456V18.347c-.027,1.631-.766,2.853-2.233,2.853a.4.4,0,0,0-.449.449v.9A.4.4,0,0,0,361.7,23h7.4a.4.4,0,0,0,.45-.451v-.9a.4.4,0,0,0-.45-.449c-1.467,0-2.176-1.222-2.176-2.853V6.972l7.06,14.338a.536.536,0,0,0,.529.331h2.755a.534.534,0,0,0,.528-.331l7.062-14.338V18.347c0,1.631-.71,2.853-2.177,2.853a.4.4,0,0,0-.45.449v.9a.4.4,0,0,0,.45.451h7.4a.4.4,0,0,0,.45-.451v-.9A.4.4,0,0,0,390.075,21.2Z"/><path d="M420.382,21.193l-.169,0c-1.547-.079-2.243-1.45-2.985-2.849l-3.271-6.162a5.771,5.771,0,0,0,3.567-5.347c0-3.43-3.138-6.339-8-6.339H398.5a.4.4,0,0,0-.45.45v.9a.4.4,0,0,0,.45.45h.03c1.647,0,2.176,1.222,2.176,2.852v13.2c0,1.579-.5,2.776-2.024,2.849h-.2a.4.4,0,0,0-.45.45v.9a.4.4,0,0,0,.45.451H407.7a.4.4,0,0,0,.45-.451v-.9a.4.4,0,0,0-.45-.45h-.18c-1.527-.073-2.024-1.27-2.024-2.849v-5h2.236q1.052,0,1.971-.09l2.729,5.085a3,3,0,0,1,.39,1.384,1.391,1.391,0,0,1-1.475,1.464h-.191a.4.4,0,0,0-.45.45v.9a.4.4,0,0,0,.45.45h9.224a.4.4,0,0,0,.45-.45v-.9A.4.4,0,0,0,420.382,21.193Zm-13.141-9.976H405.5V2.3h2.711c3,.007,4.815,1.763,4.815,4.539C413.024,9.551,411.242,11.217,407.241,11.217Z"/><path d="M450.613,21.2c-1.257,0-1.613-1.323-2.206-2.853L441.638.874a.5.5,0,0,0-.515-.36h-3.61A.5.5,0,0,0,437,.877l-6.467,17.47c-.579,1.565-.92,2.853-2.236,2.853a.4.4,0,0,0-.45.449v.9a.4.4,0,0,0,.45.451h7.458a.4.4,0,0,0,.45-.451v-.9a.4.4,0,0,0-.45-.449,2.124,2.124,0,0,1-2.2-2.853l.893-2.534h8.214l.934,2.534a2.265,2.265,0,0,1,.145.778,2.2,2.2,0,0,1-2.321,2.075.4.4,0,0,0-.45.449v.9a.4.4,0,0,0,.45.451h9.2a.4.4,0,0,0,.45-.451v-.9A.4.4,0,0,0,450.613,21.2Zm-15.25-8,3.1-8.786L441.7,13.2Z"/><path d="M479.071,17.847l-1.256-.684a.532.532,0,0,0-.264-.081.428.428,0,0,0-.369.26l-.1.166c-1.132,1.945-3.3,2.669-8.877,2.769l-4.07.074,14.784-19.29a.463.463,0,0,0,.128-.286c0-.157-.141-.265-.391-.265H462.834a.733.733,0,0,1-.574-.163L462.093.2a.414.414,0,0,0-.256-.1.456.456,0,0,0-.378.245l-2.391,4.692a.549.549,0,0,0-.075.26.431.431,0,0,0,.245.372l1.256.675a.541.541,0,0,0,.266.081.43.43,0,0,0,.368-.251l.1-.166a5.912,5.912,0,0,1,5.38-3.069h5.116L458,20.577v1.968a.416.416,0,0,0,.464.464h17.014a.779.779,0,0,1,.575.15l.167.15a.415.415,0,0,0,.255.095.457.457,0,0,0,.378-.245l2.39-4.679a.52.52,0,0,0,.082-.265A.428.428,0,0,0,479.071,17.847Z"/><rect x="100" y="54" width="280" height="2"/></svg>