<svg id="Layer_1" data-name="Layer 1" xmlns="http://www.w3.org/2000/svg" width="800" height="206" viewBox="0 0 800 206"><title>yarntown-logo</title><polygon points="0.251 57.363 10.999 53.008 58.319 44.553 61.127 46.301 58.443 48.982 58.071 52.429 42.009 56.155 19.75 54.97 0 61.463 0.251 57.363 0.251 57.363"/><polygon points="800 19.54 787.995 15.68 764.513 18.583 762.469 24.78 778.476 23.131 781.364 25.13 795.772 28.526 798.536 27.033 800 19.54"/><polygon points="711.95 63.615 695.389 150.473 698.235 152.255 706.679 152.402 705.263 158.621 698.072 159.78 675.835 155.011 673.838 143.266 680.521 144.87 686.267 144.928 705.502 47.121 703.099 44.057 699.812 43.084 702.152 37.854 695.944 34.611 726.788 18.599 732.737 21.359 729.008 33.562 739.185 124.341 742.96 131.683 745.335 138.494 775.76 34.958 780.69 29.127 782.722 29.383 754.462 140.306 749.63 154.704 754.235 169.588 746.226 177.831 725.909 156.76 725.836 148.386 721.943 147.128 724.957 137.147 720.857 132.078 714.307 48.099 712.701 44.629 710.343 47.942 712.438 59.11 711.95 63.615"/><path d="M269.156,196.264l-2.185-2.676,2.18-1.794,7.448-1.633-17.838-81.29-3.922,1.253L241.673,127.05l4.353,4.579,2.379,1.437-2.909,7.6,3.8,28.387,6.147,2.838-6.773,11.362L226.4,179.775l-8.534.768-.7-3.629L224.1,165.9l-.359-68.546-6.192-2.081,1.78-3.081.163-7.52,4.218-5.131-7.142-4.543,1.383-6.1-3.8-4.03,6.61-8.341s29.958-20.769,42.591-20.769,18.976,9.19,19.356,17.752-9.052,33.7-9.052,33.7l-12,15.887,19.586,82.764,3.9,2.417,4.336.19,1.463,1.89-1.241,1.533-12.2,4.86-1.437-1.637Zm-26.227-79.515,21.555-21.637s11.447-24.328,8.768-38.713-8.971-16.49-17.605-13.975a30.12,30.12,0,0,0-13.9,9.244l-1.139,31.783Z"/><polygon points="203.419 163.659 199.254 159.354 185.873 52.569 190.747 51.311 189.912 40.691 174.599 46.422 173.502 49.517 170.328 47.833 152.503 49.991 150.228 52.188 154.465 56.512 167.958 53.712 167.35 66.962 170.676 78.164 170.988 116.664 162.386 119.589 144.325 122.018 163.712 63.56 162.545 61.431 160.412 62.33 139.059 118.023 116.763 180.639 110.758 185.791 140.318 191.698 142.308 189.653 137.3 185.102 124.771 181.3 121.756 178.804 141.979 129.859 149.031 125.589 145.329 132.583 170.542 124.446 174.566 193.619 177.711 194.119 181.471 178.419 202.53 174.362 210.14 167.02 203.419 163.659"/><polygon points="696.114 7.846 693.183 0 669.976 0.829 655.479 2.351 653.966 10.186 667.449 9.843 629.724 96.805 624.916 101.422 620.053 85.249 608.21 65.08 603.839 67.684 580.771 105.968 571.337 21.137 583.877 15.279 583.926 8.619 555.607 18.085 555.373 22.087 561.376 20.911 565.858 21.751 581.04 143.447 581.072 151.36 584.15 153.443 592.537 138.182 592.534 134.022 614.409 89.609 617.394 88.157 622.802 108.902 622.988 109.103 627.153 138.508 635.105 139.035 684.298 9.572 679.061 5.879 683.934 5.24 693.43 9.061 696.114 7.846"/><path d="M505.982,6.024l2.8,3.355s17.513,2.725,26.305,19.666,10.136,40.8-.7,58.664-35.317,43.755-35.317,43.755-23.252,11.944-31.526,9.438-10.323-15.141-11.055-22.34-.248-20.858,1.779-29.749,18.167-58.669,18.167-58.669l7.219-8.933.254-6.014c5.625-7.974,13.213-10.381,22.076-9.173Zm-31.338,114.6c7.028,7.58,17.442,8.1,23.071,5.224s19.122-20.3,23.7-39.3,2.82-48-5.965-62.3-19.775-10.6-19.775-10.6a41.616,41.616,0,0,0-7.573,7.515,21.737,21.737,0,0,0-4.119,9.476l.2,8.83-1.363,3.563-2.7-1.825-2.662-.605,2.188,16.69-3.088,9.527.012,16.757L473.057,93.86S467.616,113.039,474.644,120.619Z"/><polygon points="453.294 26.001 445.258 28.499 422.581 30.277 425.389 35.107 408.608 33.545 378.203 39.387 376.175 54.272 387.116 52.639 387.046 50.578 383.972 47.356 388.467 46.566 397.438 39.746 403.139 39.632 408.22 44.749 407.17 104.131 403.828 144.096 401.049 153.43 406.468 173.913 409.45 168.685 409.259 165.616 412.42 158.456 426.184 153.022 432.33 148.342 435.303 148.787 434.606 142.707 428.94 141.56 426.069 144.701 421.683 148.787 418.864 148.158 416.671 143.443 421.37 140.929 423.972 143.017 428.177 140.034 425.84 135.36 425.927 118.525 422.35 108.886 422.247 76.975 422.36 44.621 424.88 39.949 440.195 34.229 445.171 32.953 447.127 37.609 447.014 50.451 451.329 49.69 454.202 42.73 454.44 28.585 453.294 26.001"/><polygon points="374.864 28.204 357.703 25.231 348.574 28.277 345.602 30.678 346.879 34.746 353.744 33.899 352.96 36.22 359.316 39.95 358.566 40.827 354.249 54.106 351.628 117.879 341.714 99.957 330.58 44.303 323.629 35.853 291.856 36 294.559 42.843 300.7 42.893 305.671 47.696 305.408 155.461 296.107 156.503 296.034 160.492 302.65 160.515 307.037 162.495 319.988 160.771 319.199 154.437 309.342 155.275 309.472 52.861 314.847 47.051 328.345 106.46 346.216 149.891 363.812 147.889 360.283 140.09 355.318 138.018 358.055 81.681 361.955 69.011 364.329 42.891 365.022 36.143 363.997 34.469 358.241 33.984 356.663 33.539 368.264 32.108 374.854 32.04 376.882 30.109 374.864 28.204"/><polygon points="133.709 40.691 93.747 38.944 91.38 43.276 97.134 44.561 76.288 116.592 74.412 119.13 72.433 116.573 73.484 109.628 61.127 97.983 53.011 86.106 36.706 60.754 32.932 59.033 30.563 64.307 40.895 81.774 59.557 101.896 68.284 120.468 64.524 188.02 57.844 189.767 55.518 196.218 68.609 196.293 69.549 194.017 71.276 192.673 75.921 195.489 71.444 198.664 63.908 197.713 54.682 199.884 57.142 206 61.562 206 63.502 203.034 94.22 195.617 97.856 196.358 96.045 190.489 85.269 191.261 92.919 113.321 122.374 48.863 132.998 50.939 133.707 47.627 136.998 44.135 133.709 40.691"/></svg>